HIERARCHY
ROOT Hips
{
	OFFSET -3.958830 18.904000 13.208200
	CHANNELS 6 Xposition Yposition Zposition Zrotation Yrotation Xrotation 
	JOINT LHipJoint
	{
		OFFSET 0.000000 0.000000 0.000000
		CHANNELS 3 Zrotation Yrotation Xrotation
		JOINT LeftUpLeg
		{
			OFFSET 1.800000 -1.400000 0.085000
			CHANNELS 3 Zrotation Yrotation Xrotation
			JOINT LeftLeg
			{
				OFFSET 2.215000 -6.000000 0.000000
				CHANNELS 3 Zrotation Yrotation Xrotation
				JOINT LeftFoot
				{
					OFFSET 2.500000 -6.900000 0.000000
					CHANNELS 3 Zrotation Yrotation Xrotation
					JOINT LeftToeBase
					{
						OFFSET 0.200000 -0.500000 1.950000
						CHANNELS 3 Zrotation Yrotation Xrotation
						End Site
						{
							OFFSET 0.000000 0.000000 0.000000
						}
					}
				}
			}
		}
	}
	JOINT RHipJoint
	{
		OFFSET 0.000000 0.000000 0.000000
		CHANNELS 3 Zrotation Yrotation Xrotation
		JOINT RightUpLeg
		{
			OFFSET -1.800000 -1.400000 0.085000
			CHANNELS 3 Zrotation Yrotation Xrotation
			JOINT RightLeg
			{
				OFFSET -2.215000 -6.000000 0.000000
				CHANNELS 3 Zrotation Yrotation Xrotation
				JOINT RightFoot
				{
					OFFSET -2.500000 -6.900000 0.000000
					CHANNELS 3 Zrotation Yrotation Xrotation
					JOINT RightToeBase
					{
						OFFSET -0.200000 -0.500000 1.950000
						CHANNELS 3 Zrotation Yrotation Xrotation
						End Site
						{
							OFFSET 0.000000 0.000000 0.000000
						}
					}
				}
			}
		}
	}
	JOINT LowerBack
	{
		OFFSET 0.000000 0.000000 0.000000
		CHANNELS 3 Zrotation Yrotation Xrotation
		JOINT Spine
		{
			OFFSET -0.087000 1.940000 -0.288900
			CHANNELS 3 Zrotation Yrotation Xrotation
			JOINT Spine1
			{
				OFFSET 0.000000 1.950000 0.060000
				CHANNELS 3 Zrotation Yrotation Xrotation
				JOINT Neck
				{
					OFFSET 0.000000 0.000000 0.000000
					CHANNELS 3 Zrotation Yrotation Xrotation
					JOINT Neck1
					{
						OFFSET 0.000000 1.600000 0.340000
						CHANNELS 3 Zrotation Yrotation Xrotation
						JOINT Head
						{
							OFFSET 0.000000 1.667000 -0.240000
							CHANNELS 3 Zrotation Yrotation Xrotation
							End Site
							{
								OFFSET 0.000000 0.000000 0.000000
							}
						}
					}
				}
				JOINT LeftShoulder
				{
					OFFSET 0.000000 0.000000 0.000000
					CHANNELS 3 Zrotation Yrotation Xrotation
					JOINT LeftArm
					{
						OFFSET 2.700000 1.550000 -0.730000
						CHANNELS 3 Zrotation Yrotation Xrotation
						JOINT LeftForeArm
						{
							OFFSET 5.450000 0.000000 0.000000
							CHANNELS 3 Zrotation Yrotation Xrotation
							JOINT LeftHand
							{
								OFFSET 3.450000 0.000000 0.000000
								CHANNELS 3 Zrotation Yrotation Xrotation
								JOINT LeftHandIndex1
								{
									OFFSET 0.750000 0.000000 0.000000
									CHANNELS 3 Zrotation Yrotation Xrotation
									End Site
									{
										OFFSET 0.000000 0.000000 0.000000
									}
								}
							}
						}
					}
				}
				JOINT RightShoulder
				{
					OFFSET 0.000000 0.000000 0.000000
					CHANNELS 3 Zrotation Yrotation Xrotation
					JOINT RightArm
					{
						OFFSET -2.700000 1.550000 -0.730000
						CHANNELS 3 Zrotation Yrotation Xrotation
						JOINT RightForeArm
						{
							OFFSET -5.450000 0.000000 0.000000
							CHANNELS 3 Zrotation Yrotation Xrotation
							JOINT RightHand
							{
								OFFSET -3.450000 0.000000 0.000000
								CHANNELS 3 Zrotation Yrotation Xrotation
								JOINT RightHandIndex1
								{
									OFFSET -0.750000 0.000000 0.000000
									CHANNELS 3 Zrotation Yrotation Xrotation
									End Site
									{
										OFFSET 0.000000 0.000000 0.000000
									}
								}
							}
						}
					}
				}
			}
		}
	}
}
MOTION
Frames: 12
Frame Time: 0.016667
-2.881370 16.119810 0.012770 7.460587 -1.066201 -2.147843 -14.884280 13.573569 2.470819 29.631333 -1.254853 6.694210 -6.161706 14.602186 36.366990 0.718572 9.161766 1.162764 0.636040 0.691040 0.461420 18.557676 -9.543841 3.913789 -8.091613 8.983963 -32.366376 16.954183 -12.626960 38.966549 -1.054497 -6.165586 1.738065 0.320480 -0.354310 0.113830 -4.392586 -2.774636 -8.184659 17.641327 -12.193497 14.066101 -20.976148 -3.674692 28.813813 10.799696 -5.866938 -26.828478 -17.812368 -1.394248 34.413208 3.386950 -7.996710 -30.664950 -14.339113 -47.070604 16.903267 -38.114030 -14.459614 2.476698 3.490357 14.774436 -0.007075 -3.374499 2.857226 0.605070 -0.513060 0.537500 0.031570 -6.813056 54.311728 15.631343 38.577905 21.560767 0.719423 -6.388223 -10.468967 1.284714 3.116480 -1.138480 0.123430 0.224930 -0.138830 0.014100 
-2.843030 16.087030 -0.168090 7.567609 5.589732 -1.943424 -14.830824 13.212213 2.250230 27.009779 -0.687757 -0.042875 -5.426781 14.869572 41.161108 0.748275 9.258885 1.072913 0.626980 0.670890 0.449260 18.670333 -9.649971 4.044126 -11.902800 8.998478 -33.306684 20.819167 -13.550039 36.887088 -1.064257 -6.432533 1.629573 0.294180 -0.355880 0.151570 -4.723375 -2.010564 -8.032646 20.858269 -11.945695 13.335705 -21.344455 -3.253078 24.443943 10.526050 -7.878830 -23.779781 -19.946436 -0.569552 32.913552 1.179780 -7.370830 -27.689890 -17.710779 -43.531793 15.165269 -42.571267 -10.920437 1.265683 1.885480 17.224673 -0.082981 -3.375937 3.052452 0.537260 -0.477950 0.509820 0.038280 -2.426049 52.643418 15.778583 44.673232 20.860222 0.055487 -9.570087 -7.002214 1.217171 2.948226 -1.415983 0.165390 0.140350 -0.151500 0.027350 
-2.826240 16.027690 -0.324930 8.240526 10.592078 0.202587 -14.881792 12.657175 2.335514 23.355678 -0.545730 -6.452279 -7.629016 16.822767 45.084246 0.922305 9.838114 0.943722 0.560510 0.578730 0.432790 18.713232 -9.509576 4.319603 -15.619496 9.306801 -36.689455 23.327404 -14.189587 36.198982 -1.036354 -6.742561 1.569290 0.253270 -0.261490 0.130260 -4.765995 -1.302749 -8.193009 20.748438 -9.599309 13.105346 -17.266140 -2.306273 17.824589 7.734740 -8.760535 -19.714639 -17.831830 -1.119959 28.717416 -0.509480 -5.676700 -24.572510 -19.091780 -35.532840 12.328706 -45.764318 -8.478040 0.947998 2.906187 18.056814 0.584895 -3.504960 3.148674 0.452620 -0.385330 0.412610 0.068920 4.483365 45.026781 14.504353 46.439160 19.502304 0.516536 -9.375434 -4.387360 0.926703 2.893545 -1.468015 0.115110 0.133780 -0.177570 0.026170 
-2.774080 16.040280 -0.483960 8.188981 14.543418 0.039153 -14.853087 12.290015 2.462416 20.558527 -0.292036 -8.989420 -9.912624 18.676902 46.971271 1.096705 10.362337 0.816523 0.538050 0.580480 0.411730 18.771271 -9.513049 4.358731 -19.253294 8.807516 -35.663832 27.188680 -14.204862 32.372901 -1.013952 -6.744349 1.580394 0.261240 -0.201300 0.125700 -4.950747 -0.787201 -8.253754 22.243530 -8.930938 12.678601 -16.881294 -1.308359 17.319266 7.264131 -9.330380 -19.516431 -18.148680 0.926123 28.285494 -1.146540 -3.646670 -22.840930 -18.879395 -33.744210 12.522239 -45.484949 -5.207327 0.028612 3.508434 19.456353 0.696341 -3.588815 3.134438 0.406820 -0.328580 0.387890 0.088780 5.456994 44.188173 13.877542 44.912787 21.794904 1.426140 -8.561207 -4.243645 0.827854 2.905309 -1.443930 0.099760 0.160960 -0.181520 0.042510 
-2.748200 16.059380 -0.676650 7.690788 17.163686 -0.397398 -14.816273 12.051923 2.521679 17.739129 0.224980 -10.663816 -11.459634 20.133878 48.032344 1.277651 10.702512 0.750278 0.462410 0.504390 0.325310 18.820179 -9.482821 4.478033 -22.520503 8.774054 -34.595108 30.669295 -13.664820 28.372449 -0.970042 -6.667791 1.621144 0.203340 -0.148750 0.121370 -5.119715 -0.442064 -8.338108 24.323106 -8.212057 13.180478 -17.201442 0.477029 16.658550 7.103918 -10.631322 -20.536519 -20.869861 3.346617 29.026281 -0.855870 -2.378670 -20.234100 -17.742449 -31.813495 13.016812 -45.284029 -1.251877 -1.044597 8.700429 17.425184 1.525593 -3.597989 3.193239 0.374620 -0.301840 0.347060 0.095830 5.241704 44.064702 14.157466 43.674695 22.389617 1.056006 -10.064100 -0.813254 0.303468 2.855821 -1.452430 0.094920 0.145380 -0.148320 0.068120 
-2.751420 16.077630 -0.884320 7.650060 20.835146 -1.311422 -14.836527 12.143522 2.616155 14.764206 0.437402 -11.253653 -11.539807 20.701632 49.286039 1.393605 10.882776 0.724467 0.423170 0.448460 0.371720 18.738869 -9.649101 4.445980 -23.313404 8.509217 -33.253660 29.734237 -12.511400 26.461468 -0.873167 -6.335394 1.724278 0.156540 -0.169820 0.138640 -5.108515 -0.327752 -8.478638 23.689163 -7.107917 14.732079 -16.953265 1.940306 16.432437 7.373514 -9.490264 -21.401641 -18.701372 4.927437 31.260433 -3.414770 0.712450 -18.149020 -19.915328 -30.036003 13.588894 -38.224889 3.791568 -1.572540 10.931675 15.087091 1.442465 -3.641079 3.147269 0.367030 -0.269490 0.355700 0.064300 6.835650 42.618781 13.589774 40.755381 23.756872 0.777461 -11.965756 -0.540421 -0.073945 2.910350 -1.459681 0.090950 0.096030 -0.158790 0.031780 
-2.742930 16.077180 -1.085790 7.160840 24.639428 -1.902055 -14.882764 12.072813 2.678848 12.892052 0.545584 -12.050872 -12.026593 21.612200 50.618071 1.434574 11.253479 0.607848 0.441410 0.459340 0.417230 18.697049 -9.721733 4.310880 -23.578191 8.133391 -32.100465 28.778138 -11.527324 24.581463 -0.773737 -6.077924 1.777789 0.204260 -0.147420 0.161010 -5.099556 -0.174991 -8.450089 23.296600 -6.017989 14.731015 -15.411770 2.304653 17.369547 6.739859 -8.772712 -20.885260 -16.511763 6.885766 29.757517 -4.169780 3.926040 -16.661790 -17.912952 -29.022642 13.470149 -34.539431 3.767932 -1.780531 11.665556 18.915628 1.599435 -3.830675 3.169225 0.331830 -0.198730 0.313780 0.044870 6.136872 40.490435 12.764347 35.595400 25.622750 0.987850 -12.182189 2.958454 -0.873937 2.843718 -1.481053 0.063390 0.065380 -0.155060 -0.010490 
-2.716580 16.116130 -1.285600 6.604926 29.966132 -3.418972 -14.928500 12.198642 2.598733 10.580261 0.382619 -11.578355 -9.976173 20.565129 52.104189 1.434509 11.142511 0.637261 0.537290 0.591890 0.484370 18.615649 -10.037468 4.004874 -23.554442 6.794687 -28.892805 26.451853 -10.378894 22.273199 -0.696078 -5.737552 1.862341 0.280670 -0.175160 0.208760 -5.173401 -0.013944 -8.257115 23.828169 -5.294278 14.732688 -14.577020 2.525633 18.593717 6.223627 -8.522334 -20.324651 -15.746913 8.518941 28.696406 -5.331180 6.430670 -16.169600 -14.852611 -27.888239 13.287898 -29.542912 2.277401 -1.334014 10.177773 20.283495 1.179681 -3.927082 3.207406 0.277150 -0.158790 0.338330 0.075040 4.211524 38.342972 11.973245 31.103551 26.317368 1.243162 -12.859254 3.342047 -1.265424 2.867274 -1.558284 0.113900 0.002760 -0.227190 -0.006200 
-2.692000 16.161410 -1.494780 6.389146 35.135175 -4.546948 -15.022780 12.404402 2.594351 8.813280 -0.037995 -10.857067 -8.570568 19.302043 52.238312 1.351082 10.946092 0.710004 0.487180 0.514200 0.447680 18.478527 -10.241053 3.745773 -23.578041 5.414247 -26.353741 24.138403 -9.661911 20.664150 -0.596551 -5.450022 1.955670 0.254300 -0.120140 0.218430 -5.125457 -0.199056 -8.163696 22.956264 -4.788860 15.369963 -13.020012 2.275702 18.717743 5.241651 -7.991193 -20.183061 -14.682064 9.306137 28.210085 -4.116250 7.321260 -15.591560 -12.745413 -27.084279 13.794630 -25.817936 2.782434 -0.560887 12.136844 15.401346 1.005884 -3.922599 3.209134 0.284650 -0.128430 0.296020 0.059410 3.980099 36.487112 11.392934 28.208947 25.873698 -1.413782 -17.871129 6.758060 -2.776321 2.778850 -1.633828 0.076800 0.012040 -0.172710 -0.020500 
-2.675970 16.236930 -1.688680 6.594590 39.682485 -5.146477 -15.098426 12.681761 2.515755 6.977433 0.024419 -9.575421 -6.784365 17.086958 49.967998 1.193558 10.216375 0.986195 0.384220 0.423180 0.330220 18.334385 -10.558288 3.499079 -23.577301 3.937559 -23.355832 20.781695 -8.282365 17.471709 -0.433503 -4.969444 2.175306 0.217980 0.013380 0.216630 -5.139194 -0.287629 -8.031575 21.718532 -4.173376 15.631655 -12.134290 2.475347 19.587173 4.617403 -7.524021 -20.828175 -13.726847 10.481826 27.667034 -2.752950 8.485050 -12.935330 -10.950121 -27.032829 14.649688 -20.703151 4.884668 -0.263662 12.524873 12.323582 0.673200 -4.008618 3.152210 0.220700 -0.035120 0.212650 0.073420 3.490371 35.846644 11.051615 22.339479 26.026672 -1.618852 -17.939729 6.473795 -2.777923 2.795896 -1.590348 0.036280 0.047500 -0.111230 0.011070 
-2.652210 16.333870 -1.898190 6.336983 42.600568 -6.020148 -15.139067 12.936200 2.507848 6.214119 0.342263 -8.486551 -6.480125 15.694337 46.479563 0.970651 9.502886 1.241346 0.308980 0.341680 0.309290 18.223859 -10.939590 3.149206 -22.033148 2.755457 -20.604300 15.902742 -6.934430 15.197760 -0.311049 -4.322571 2.470217 0.194530 0.072810 0.185760 -5.217783 -0.257961 -7.845185 22.227509 -3.486474 16.217886 -11.430965 2.703585 19.000672 3.943488 -8.088228 -20.427285 -14.968109 11.837953 27.937166 -4.115970 10.081350 -13.320940 -9.291551 -25.705678 15.284019 -15.800453 6.525227 1.111144 10.183651 5.529062 0.152890 -3.925566 3.000828 0.250510 0.005710 0.191380 0.056370 3.212327 34.575970 9.259564 18.844102 28.468898 -3.438974 -23.217886 -0.909872 -2.783071 2.991250 -1.609283 -0.040270 0.133500 -0.064950 -0.014160 
-2.613690 16.400330 -2.090820 7.820303 45.338890 -4.338713 -15.167478 12.712898 2.581826 4.038791 0.907563 -8.866567 -8.583331 16.505125 44.248374 0.899003 9.540408 1.303142 0.120180 0.115850 0.235140 18.198140 -11.213316 2.995030 -21.626834 1.951478 -19.103497 12.567387 -5.967922 12.303239 -0.133187 -4.097848 2.590913 0.153380 0.302610 0.214100 -5.314447 0.416259 -7.815593 19.123923 -0.951304 14.549414 -9.774446 3.543227 19.749722 3.401312 -5.982967 -18.920604 -9.736009 15.745691 25.787210 -4.974790 15.958850 -8.267850 -6.352174 -25.259556 17.387103 -12.863481 14.737587 1.099334 9.080912 1.453141 -0.021683 -4.133136 2.989610 0.138890 0.241940 0.010600 0.005970 1.096147 32.785800 5.249214 16.851855 35.280069 -3.951627 -26.393487 -14.642981 -0.675674 3.326850 -1.766356 -0.179580 0.160410 0.059810 -0.057600 
